<?xml version="1.0" encoding="utf-8"?>
<!-- Generator: Adobe Illustrator 23.0.0, SVG Export Plug-In . SVG Version: 6.00 Build 0)  -->
<svg version="1.2" baseProfile="tiny" id="레이어_1"
	 xmlns="http://www.w3.org/2000/svg" xmlns:xlink="http://www.w3.org/1999/xlink" x="0px" y="0px" width="1000px" height="1000px"
	 viewBox="0 0 1000 1000" xml:space="preserve">
<path fill="#F3F2EC" d="M564.3,150.4c0-2.6-4.3-4.2-7.4-2.7C400.5,223.1,302,362.2,261.1,565c15-2.8,30.6-3.9,46.1-3.3
	c44.9,1.8,85.6,17.6,128,28c35,8.6,76,13,109.3,3.5C531.3,459.4,542.5,308.5,564.3,150.4z"/>
<path fill="#F3F2EC" d="M204,722.7c-3.7-3.9-5.5-9.1-5.5-15.4v-2.8c0-0.8,0.4-1.2,1.2-1.2h5.9c0.8,0,1.2,0.4,1.2,1.2v2.4
	c0,4.3,1.1,7.7,3.3,10.3s5,3.9,8.4,3.9s6.2-1.2,8.4-3.7s3.4-5.8,3.4-9.9c0-2.7-0.5-5.1-1.6-7c-1.1-2-2.5-3.7-4.2-5.2
	s-4.6-3.8-8.6-6.8s-7.2-5.5-9.5-7.7c-2.3-2.1-4.2-4.7-5.7-7.7s-2.2-6.5-2.2-10.5c0-6.3,1.8-11.2,5.4-14.9c3.6-3.7,8.3-5.5,14.1-5.5
	c6.1,0,11,2,14.6,6c3.7,4,5.5,9.3,5.5,15.8v3c0,0.8-0.4,1.2-1.2,1.2h-6c-0.8,0-1.2-0.4-1.2-1.2v-3c0-4.3-1.1-7.7-3.2-10.3
	c-2.1-2.6-5-3.9-8.5-3.9c-3.2,0-5.9,1.1-8,3.4c-2.1,2.3-3.1,5.5-3.1,9.7c0,2.5,0.5,4.7,1.4,6.6c0.9,1.9,2.3,3.7,4.2,5.4
	c1.8,1.7,4.6,3.9,8.2,6.6c4.8,3.5,8.4,6.4,10.8,8.6c2.4,2.2,4.2,4.6,5.5,7.2c1.3,2.6,1.9,5.8,1.9,9.5c0,6.6-1.9,11.9-5.7,15.8
	c-3.8,4-8.6,6-14.6,6C212.5,728.6,207.7,726.6,204,722.7z"/>
<path fill="#F3F2EC" d="M288.7,644.5v5.1c0,0.8-0.4,1.2-1.2,1.2h-15.9c-0.3,0-0.5,0.2-0.5,0.5v75.2c0,0.8-0.4,1.2-1.2,1.2h-6.1
	c-0.8,0-1.2-0.4-1.2-1.2v-75.2c0-0.3-0.2-0.5-0.5-0.5h-14.9c-0.8,0-1.2-0.4-1.2-1.2v-5.1c0-0.8,0.4-1.2,1.2-1.2h40.4
	C288.3,643.3,288.7,643.7,288.7,644.5z"/>
<path fill="#F3F2EC" d="M306.4,722.2c-3.8-4.3-5.7-9.9-5.7-16.9v-60.9c0-0.8,0.4-1.2,1.2-1.2h6.1c0.8,0,1.2,0.4,1.2,1.2v61.8
	c0,4.4,1.1,8,3.3,10.7c2.2,2.7,5.1,4.1,8.7,4.1c3.7,0,6.7-1.4,8.9-4.1c2.2-2.7,3.4-6.3,3.4-10.7v-61.8c0-0.8,0.4-1.2,1.2-1.2h6.1
	c0.8,0,1.2,0.4,1.2,1.2v60.9c0,7-1.9,12.6-5.7,16.9c-3.8,4.3-8.9,6.4-15.1,6.4C315.2,728.6,310.2,726.5,306.4,722.2z"/>
<path fill="#F3F2EC" d="M357.2,726.4v-82c0-0.8,0.4-1.2,1.2-1.2H377c6.2,0,11.1,2,14.8,6.1c3.7,4.1,5.5,9.5,5.5,16.3v39.5
	c0,6.8-1.8,12.3-5.5,16.3c-3.7,4.1-8.6,6.1-14.8,6.1h-18.6C357.6,727.6,357.2,727.2,357.2,726.4z M366.2,720.2l10.6-0.1
	c3.5,0,6.4-1.4,8.5-4.1c2.1-2.7,3.2-6.4,3.3-11.1v-38.8c0-4.7-1-8.5-3.1-11.2s-5-4.1-8.7-4.1h-10.6c-0.3,0-0.5,0.2-0.5,0.5v68.5
	C365.7,720,365.9,720.2,366.2,720.2z"/>
<path fill="#F3F2EC" d="M413.2,726.4v-82c0-0.8,0.4-1.2,1.2-1.2h6.1c0.8,0,1.2,0.4,1.2,1.2v82c0,0.8-0.4,1.2-1.2,1.2h-6.1
	C413.6,727.6,413.2,727.2,413.2,726.4z"/>
<path fill="#F3F2EC" d="M442.8,722.8c-3.8-3.9-5.7-9-5.7-15.3v-44.1c0-6.3,1.9-11.4,5.7-15.3c3.8-3.9,8.8-5.8,15-5.8
	c6.3,0,11.3,1.9,15.2,5.8c3.9,3.9,5.8,9,5.8,15.3v44.1c0,6.3-1.9,11.3-5.8,15.2s-8.9,5.8-15.2,5.8
	C451.6,728.6,446.6,726.7,442.8,722.8z M466.8,717.5c2.3-2.5,3.4-5.6,3.4-9.5v-45c0-3.9-1.1-7.1-3.4-9.6c-2.3-2.4-5.3-3.7-9-3.7
	c-3.6,0-6.5,1.2-8.8,3.7s-3.4,5.6-3.4,9.6v45c0,3.9,1.1,7,3.4,9.5c2.2,2.5,5.2,3.7,8.8,3.7C461.5,721.1,464.5,719.9,466.8,717.5z"/>
<path fill="#F3F2EC" d="M553.1,643.3h6c0.8,0,1.2,0.4,1.2,1.2v82c0,0.8-0.4,1.2-1.2,1.2H552c-0.6,0-1.1-0.3-1.3-1l-23.5-62.3
	c-0.1-0.2-0.2-0.3-0.4-0.3s-0.2,0.2-0.2,0.4l0.1,61.9c0,0.8-0.4,1.2-1.2,1.2h-6.1c-0.8,0-1.2-0.4-1.2-1.2v-82c0-0.8,0.4-1.2,1.2-1.2
	h7c0.6,0,1.1,0.3,1.3,1l23.6,62.4c0.1,0.2,0.2,0.3,0.4,0.3s0.2-0.2,0.2-0.4v-62.1C551.9,643.7,552.3,643.3,553.1,643.3z"/>
<path fill="#F3F2EC" d="M582.5,722.2c-3.8-4.3-5.7-9.9-5.7-16.9v-60.9c0-0.8,0.4-1.2,1.2-1.2h6.1c0.8,0,1.2,0.4,1.2,1.2v61.8
	c0,4.4,1.1,8,3.3,10.7s5.1,4.1,8.7,4.1c3.7,0,6.7-1.4,8.9-4.1c2.2-2.7,3.4-6.3,3.4-10.7v-61.8c0-0.8,0.4-1.2,1.2-1.2h6.1
	c0.8,0,1.2,0.4,1.2,1.2v60.9c0,7-1.9,12.6-5.7,16.9c-3.8,4.3-8.9,6.4-15.1,6.4C591.3,728.6,586.3,726.5,582.5,722.2z"/>
<path fill="#F3F2EC" d="M673.2,643.3h6.3c0.8,0,1.2,0.4,1.2,1.2v82c0,0.8-0.4,1.2-1.2,1.2h-6.1c-0.8,0-1.2-0.4-1.2-1.2v-64.6
	c0-0.2-0.1-0.4-0.2-0.4c-0.1,0-0.3,0.1-0.4,0.2l-12.5,26c-0.2,0.6-0.6,0.8-1.2,0.8c-0.6,0-1.1-0.3-1.3-0.8l-12.5-25.9
	c-0.2-0.2-0.3-0.2-0.4-0.2c-0.1,0-0.2,0.1-0.2,0.4v64.5c0,0.8-0.4,1.2-1.2,1.2h-6.1c-0.8,0-1.2-0.4-1.2-1.2v-82
	c0-0.8,0.4-1.2,1.2-1.2h6.3c0.7,0,1.2,0.3,1.4,0.8l13.7,27.8c0.1,0.2,0.2,0.2,0.4,0.2s0.3-0.1,0.4-0.2l13.6-27.8
	C672,643.6,672.4,643.3,673.2,643.3z"/>
<path fill="#F3F2EC" d="M699.7,722.7c-3.7-3.9-5.5-9.1-5.5-15.4v-2.8c0-0.8,0.4-1.2,1.2-1.2h5.9c0.8,0,1.2,0.4,1.2,1.2v2.4
	c0,4.3,1.1,7.7,3.3,10.3s5,3.9,8.4,3.9s6.2-1.2,8.4-3.7s3.4-5.8,3.4-9.9c0-2.7-0.5-5.1-1.6-7c-1.1-2-2.5-3.7-4.2-5.2
	s-4.6-3.8-8.6-6.8s-7.2-5.5-9.5-7.7c-2.3-2.1-4.2-4.7-5.7-7.7s-2.2-6.5-2.2-10.5c0-6.3,1.8-11.2,5.4-14.9c3.6-3.7,8.3-5.5,14.1-5.5
	c6.1,0,11,2,14.6,6c3.7,4,5.5,9.3,5.5,15.8v3c0,0.8-0.4,1.2-1.2,1.2h-6c-0.8,0-1.2-0.4-1.2-1.2v-3c0-4.3-1.1-7.7-3.2-10.3
	c-2.1-2.6-5-3.9-8.5-3.9c-3.2,0-5.9,1.1-8,3.4c-2.1,2.3-3.1,5.5-3.1,9.7c0,2.5,0.5,4.7,1.4,6.6c0.9,1.9,2.3,3.7,4.2,5.4
	c1.8,1.7,4.6,3.9,8.2,6.6c4.8,3.5,8.4,6.4,10.8,8.6c2.4,2.2,4.2,4.6,5.5,7.2c1.3,2.6,1.9,5.8,1.9,9.5c0,6.6-1.9,11.9-5.7,15.8
	c-3.8,4-8.6,6-14.6,6C708.2,728.6,703.4,726.6,699.7,722.7z"/>
<path fill="#F3F2EC" d="M747.9,726.4v-82c0-0.8,0.4-1.2,1.2-1.2h6.1c0.8,0,1.2,0.4,1.2,1.2v82c0,0.8-0.4,1.2-1.2,1.2h-6.1
	C748.3,727.6,747.9,727.2,747.9,726.4z"/>
<path fill="#F3F2EC" d="M773.8,726.4v-82c0-0.8,0.4-1.2,1.2-1.2h6.1c0.8,0,1.2,0.4,1.2,1.2v75.2c0,0.3,0.2,0.5,0.5,0.5h27.6
	c0.8,0,1.2,0.4,1.2,1.2v5.1c0,0.8-0.4,1.2-1.2,1.2H775C774.2,727.6,773.8,727.2,773.8,726.4z"/>
<path fill="#F3F2EC" d="M632.8,351.7l-59.2-194.9l5.7,264.4c4.4-8,9.1-15.9,14.2-23.4C604.9,380.9,618.1,365.3,632.8,351.7z"/>
<path fill="#F3F2EC" d="M694.6,555l-59.3-195.1c-11.2,14.2-20.6,29.6-28.4,45.6c-12.4,25.5-20.6,52.6-25.5,80.1
	c-0.1,0.7-0.3,1.3-0.6,1.8l2.1,98.7C615.7,567,655,556.2,694.6,555z"/>
<path fill="#F3F2EC" d="M606.9,405.5c7.8-16,17.3-31.4,28.4-45.6l-2.5-8.2c-14.7,13.6-27.9,29.2-39.3,46.1
	c-5.1,7.5-9.8,15.4-14.2,23.4l1.4,66.4c0.3-0.6,0.5-1.2,0.6-1.8C586.3,458.1,594.5,431,606.9,405.5z"/>
</svg>
